<svg id="Layer_1" xmlns="http://www.w3.org/2000/svg" width="100" height="100" viewBox="0 0 100 100"><style>path{fill:#C60}</style><path d="M97.884 38.38a2.07 2.07 0 0 0-1.67-1.408l-30.33-4.407L52.32 5.085a2.07 2.07 0 0 0-3.712 0l-13.563 27.48-30.33 4.408a2.07 2.07 0 0 0-1.147 3.53l21.946 21.394-5.18 30.206a2.07 2.07 0 0 0 3.002 2.182l27.126-14.26 27.128 14.26a2.068 2.068 0 0 0 3.003-2.18l-5.18-30.207L97.36 40.503a2.07 2.07 0 0 0 .524-2.122zm-26.14 21.31a2.073 2.073 0 0 0-.595 1.833l4.655 27.145-24.378-12.814a2.06 2.06 0 0 0-1.926 0L25.124 88.668l4.656-27.145a2.07 2.07 0 0 0-.596-1.832L9.46 40.467l27.257-3.96a2.07 2.07 0 0 0 1.56-1.132l12.187-24.697 12.19 24.697a2.07 2.07 0 0 0 1.558 1.132l27.255 3.96L71.744 59.69z"/></svg>