<svg id="Layer_1" xmlns="http://www.w3.org/2000/svg" width="100" height="100" viewBox="0 0 100 100"><style>path{fill:#c60}</style><path d="M96.622 40.878L85.186 37.06l-1.64-3.98 5.4-10.794a2.058 2.058 0 0 0-.384-2.375l-8.725-8.724a2.058 2.058 0 0 0-2.374-.386l-10.796 5.396-3.98-1.648-3.815-11.295C58.592 2.413 57.807 2 56.922 2H44.578c-.887 0-1.672.413-1.952 1.253L38.81 14.627l-3.98 1.61-10.796-5.417a2.055 2.055 0 0 0-2.374.376l-8.726 8.72a2.055 2.055 0 0 0-.386 2.373l5.397 10.792-1.647 3.98-11.672 3.816C3.788 41.16 3 41.943 3 42.83v12.34c0 .887.788 1.672 1.628 1.952l11.56 3.816 1.705 3.98-5.37 10.795a2.06 2.06 0 0 0 .4 2.374l8.733 8.726c.625.626 1.584.78 2.377.386l10.797-5.4 3.98 1.648 3.818 11.297c.28.84 1.066 1.253 1.952 1.253h12.342c.886 0 1.67-.413 1.95-1.253L62.69 83.37l3.977-1.61 10.796 5.418c.793.397 1.75.25 2.374-.376l8.726-8.72c.626-.627.78-1.58.386-2.373L83.55 64.914l1.648-3.98 11.423-3.815c.84-.28 1.378-1.064 1.378-1.95V42.83c0-.886-.537-1.672-1.377-1.952zM94 53.688l-10.963 3.645a2.08 2.08 0 0 0-1.264 1.164L79.4 64.21c-.23.552-.21 1.175.056 1.708l5.153 10.31-6.63 6.63-10.31-5.155a2.064 2.064 0 0 0-1.71-.06l-5.713 2.366c-.55.227-.976.586-1.164 1.15L55.438 92H46.06l-3.644-10.838c-.188-.565-.613-.973-1.164-1.202l-5.714-2.343a2.058 2.058 0 0 0-1.707.073l-10.31 5.16-6.627-6.626 5.154-10.308c.267-.533.29-1.156.06-1.706l-2.366-5.713c-.23-.55-.462-.975-1.027-1.164L8 53.688v-9.376l10.713-3.645c.565-.188.91-.613 1.14-1.164l2.31-5.714c.23-.553.18-1.176-.087-1.71l-5.168-10.31 6.622-6.63 10.306 5.16a2.04 2.04 0 0 0 1.705.06l5.715-2.366c.55-.23.975-.588 1.164-1.153L46.06 6h9.377l3.643 10.838c.188.565.613.973 1.164 1.202l5.714 2.343c.55.228 1.174.194 1.708-.073l10.31-5.16 6.628 6.626-5.154 10.307a2.054 2.054 0 0 0-.06 1.706l2.366 5.712c.23.55.713.975 1.278 1.164L94 44.312v9.376z"/><path d="M50.75 34.603c-7.938 0-14.397 6.458-14.397 14.397 0 7.938 6.46 14.397 14.397 14.397S65.147 56.937 65.147 49c0-7.94-6.46-14.397-14.397-14.397zm0 24.68c-5.67 0-10.284-4.612-10.284-10.283 0-5.67 4.613-10.284 10.284-10.284S61.034 43.33 61.034 49c0 5.67-4.613 10.284-10.284 10.284z"/></svg>