<svg id="Layer_1" xmlns="http://www.w3.org/2000/svg" width="100" height="100" viewBox="0 0 100 100"><style>path{fill:#c60}</style><path d="M80.662 33.798c-.6-16.37-14.096-29.507-30.61-29.507-16.517 0-30.015 13.14-30.613 29.51-9.707.95-17.32 9.156-17.32 19.108 0 17.8 17.033 35.036 17.758 35.76l1.443 1.445 1.445-1.444c.264-.265 5.893-5.946 10.76-14.09.177.27.344.536.525.807 7.18 10.77 14.256 17.887 14.554 18.185l1.444 1.445 1.444-1.444c.298-.297 7.375-7.415 14.554-18.184.188-.283.362-.56.546-.843 4.872 8.164 10.516 13.86 10.78 14.125l1.444 1.443 1.444-1.444c.725-.725 17.757-17.96 17.757-35.76 0-9.97-7.633-18.18-17.358-19.11zm-1.32 12.593c3.124.47 5.53 3.165 5.53 6.42a6.503 6.503 0 0 1-6.495 6.495 6.463 6.463 0 0 1-3.055-.766c1.78-4.155 3.125-8.208 4.02-12.148zM24.76 58.49a6.456 6.456 0 0 1-3.144.815 6.503 6.503 0 0 1-6.496-6.496c0-3.29 2.46-6.01 5.636-6.433.89 3.93 2.23 7.972 4.003 12.114zm-3.437 25.74C17.29 79.73 6.208 66.164 6.208 52.905c0-7.722 5.824-14.1 13.308-14.998a52.11 52.11 0 0 0 .75 6.08c-4.286.653-7.583 4.354-7.583 8.82 0 4.925 4.008 8.932 8.933 8.932a8.883 8.883 0 0 0 4.136-1.02 101.997 101.997 0 0 0 5.314 9.95c-3.406 6.147-7.582 11.152-9.742 13.558zm28.727 4.925c-5.733-6.23-26.553-30.475-26.553-54.225 0-14.642 11.912-26.555 26.555-26.555 14.643 0 26.555 11.913 26.555 26.555 0 23.75-20.82 47.997-26.554 54.224zm28.768-4.927c-2.165-2.412-6.352-7.43-9.762-13.59 2.02-3.35 3.776-6.64 5.272-9.875 1.217.622 2.59.98 4.048.98 4.926 0 8.933-4.01 8.933-8.934 0-4.43-3.246-8.107-7.48-8.805.377-2.067.626-4.1.752-6.102 7.505.878 13.35 7.267 13.35 15.004.002 13.235-11.08 26.818-15.115 31.32z"/><path d="M49.88 17.572c-8.085 0-14.662 6.577-14.662 14.66s6.577 14.662 14.66 14.662 14.662-6.577 14.662-14.66S57.963 17.57 49.88 17.57zm0 25.323c-5.88 0-10.662-4.783-10.662-10.66S44 21.57 49.878 21.57 60.54 26.353 60.54 32.23s-4.782 10.663-10.66 10.663z"/></svg>