<svg id="Layer_1" xmlns="http://www.w3.org/2000/svg" viewBox="0 0 148 20"><style>path{fill:#fff}</style><path d="M9.055 18.526H1.482v-16.8h7.573v2.7H4.607v4h4.125v2.71H4.607v4.655h4.447v2.737z"/><path d="M17.553 1.727H20.7l-3.952 16.8h-3.976l-3.93-16.8h3.148l2.195 10.26c.2.875.395 2.127.586 3.76a38.67 38.67 0 0 1 .61-3.76l2.174-10.26zm11.027 16.8h-7.573v-16.8h7.573v2.7h-4.447v4h4.125v2.71h-4.125v4.654h4.447v2.737zm4.396-6.54v6.54H29.85v-16.8h4.092c1.73 0 3.01.41 3.832 1.23.824.82 1.235 2.07 1.235 3.756 0 2.122-.718 3.604-2.15 4.447l3.23 7.366h-3.346l-2.654-6.54h-1.114zm0-2.69h.804c.736 0 1.264-.206 1.586-.624s.482-1.04.482-1.867c0-.858-.17-1.47-.51-1.833s-.87-.546-1.58-.546h-.782V9.3zm11.51-.94l2.24-6.63h3.276l-3.987 10.066v6.734h-3.08V11.92L38.958 1.727h3.298l2.23 6.63zm16.508 1.608c0 2.773-.565 4.894-1.695 6.36-1.13 1.467-2.758 2.2-4.88 2.2h-4.114v-16.8H54.8c1.953 0 3.474.723 4.562 2.167s1.632 3.47 1.632 6.073zm-3.206.093c0-3.754-1.034-5.63-3.103-5.63h-1.252V15.79h1.01c1.143 0 1.985-.477 2.53-1.43s.815-2.39.815-4.304zm12.428 8.468l-.965-4.24h-4.376l-.965 4.24h-3.126l4.16-16.87h4.24l4.17 16.87h-3.137zm-1.55-7.01L67.77 7.61c-.055-.237-.176-.833-.364-1.787s-.3-1.59-.34-1.913c-.1.66-.225 1.385-.378 2.178s-.552 2.603-1.196 5.43h3.17zm8.636-3.16l2.24-6.63h3.276L78.83 11.793v6.734h-3.08V11.92L71.774 1.726h3.298l2.23 6.63zm15.618 10.17h-3.114V4.473h-3.218V1.727h9.55v2.746H92.92v14.053zm14.21 0h-3.125V11.16H99.88v7.366h-3.125v-16.8h3.125v6.676h4.125V1.727h3.125v16.8zm2.35 0v-16.8h2.943v16.8h-2.942zm17.083 0h-3.815l-5.194-12.17h-.15c.192.928.288 1.924.288 2.99v9.18h-2.896v-16.8h3.838l5.148 12.042h.126c-.146-.804-.218-1.762-.218-2.873v-9.17h2.873v16.8zm6.867-9.32h5.138v8.62a11.71 11.71 0 0 1-4.643.93c-1.954 0-3.457-.743-4.51-2.23-1.054-1.485-1.58-3.626-1.58-6.422 0-2.697.603-4.807 1.81-6.332 1.206-1.524 2.894-2.287 5.062-2.287 1.34 0 2.62.345 3.838 1.034l-.988 2.55c-.95-.553-1.84-.828-2.666-.828-1.186 0-2.126.53-2.82 1.59s-1.04 2.508-1.04 4.34c0 1.884.25 3.328.754 4.33.502 1.005 1.23 1.506 2.19 1.506.505 0 1.018-.066 1.54-.196v-3.85h-2.08V9.207zm14.176 4.69c0 1.57-.396 2.773-1.19 3.608s-1.936 1.252-3.43 1.252c-1.463 0-2.708-.288-3.734-.862v-3.09c1.257.82 2.41 1.228 3.46 1.228.597 0 1.047-.165 1.35-.494.302-.33.453-.777.453-1.344 0-.56-.18-1.07-.54-1.534-.36-.463-.953-.98-1.78-1.545-.72-.498-1.267-.975-1.638-1.43-.372-.457-.66-.968-.862-1.535s-.305-1.226-.305-1.977c0-1.44.4-2.582 1.2-3.424.802-.844 1.876-1.266 3.225-1.266 1.286 0 2.523.36 3.71 1.08l-1.033 2.505a9.925 9.925 0 0 0-1.154-.576 3.32 3.32 0 0 0-1.293-.252c-.506 0-.895.167-1.166.5-.274.333-.41.787-.41 1.362 0 .567.162 1.06.49 1.482.323.42.893.9 1.704 1.437 1.096.735 1.86 1.486 2.293 2.252.432.766.648 1.64.648 2.62z"/></svg>