<svg id="Layer_1" xmlns="http://www.w3.org/2000/svg" viewBox="-44.05 -0.04 160 66"><style>polygon,path{fill:#fff}</style><path d="M-27.455 27.856h-7.707v-8.808h7.707v-4.404h-7.707V6.936h7.707V1.43h-14.313v31.93h-1.1v4.405h6.605V64.19h5.505V37.764h5.505V33.36h-2.202zM-2.132 33.36h5.505v30.83h5.505V33.36h3.303v-5.504H4.475v-8.808h7.707v-4.404H4.475V6.937h7.707V1.43H-2.13zM35.412 33.36L29.356 19.49c2.642-1.54 4.074-4.404 4.074-8.368 0-3.193-.77-5.615-2.312-7.157-1.54-1.652-3.964-2.532-7.157-2.532h-7.376v31.93h-2.202v30.828h5.505V47.232c0-1.982-.22-3.964-.55-5.065h.33l9.688 22.02H36.4V33.36h-.988zM22.09 6.938h1.43c1.322 0 2.313.22 2.974.88s.99 1.763.99 3.414c0 1.542-.33 2.643-.88 3.414s-1.54 1.1-2.973 1.1h-1.54V6.938zm9.14 48.444l-9.58-22.02h.44V21.25h2.092l4.955 12.11H30.9v16.736c0 2.092.33 4.184.55 5.285h-.22zM40.807 33.36h5.505V20.48L54.02 1.43h-6.166L43.67 13.874 39.486 1.43H33.32l7.487 19.27zM108.63 1.43l-4.184 12.443-4.184-12.442h-6.166l7.267 19.27v12.66h5.505V20.48l7.817-19.05zM-8.738 45.472h-7.707v-12.11h5.065l7.377-31.93h-5.835L-13.912 20.7c-.44 2.092-.88 4.514-1.1 7.046a78.65 78.65 0 0 0-1.102-7.157l-4.074-19.16h-5.945l7.377 31.93h-3.193v30.828h5.506V50.976h7.707v13.212h5.505V33.36h-5.505v12.112z"/><path d="M72.627 5.615C70.535 2.862 67.672 1.43 64.04 1.43h-8.92v31.38c0-.11-1.43-.22-2.31-.22-4.075 0-7.047 1.43-9.36 4.294-2.312 2.863-3.303 6.826-3.303 11.89 0 5.286.99 9.25 2.973 12.002 1.982 2.753 4.955 4.184 8.588 4.184 3.083 0 5.615-.55 8.918-1.762V46.573h-9.91v5.505h4.405v7.267c-1.1.22-2.2.33-3.192.33-1.762 0-3.303-.99-4.184-2.863-.99-1.762-1.43-4.514-1.43-8.037 0-3.413.66-6.166 1.87-8.147 1.322-1.982 3.084-2.973 5.286-2.973 1.54 0 3.193.55 4.955 1.54l1.872-4.623c-1.1-.66-2.202-1.21-3.303-1.21h6.386c3.964 0 7.046-1.542 9.138-4.295s3.193-6.826 3.193-12c-.11-4.846-1.102-8.7-3.083-11.452zm-4.515 19.708c-.99 1.762-2.642 2.532-4.734 2.532h-1.652V6.935h2.092c3.854 0 5.835 3.414 5.835 10.46 0 3.524-.55 6.057-1.54 7.928zM91.013 1.43h-7.927L75.38 33.14c.22.11.44.22.77.22h5.065l1.762-7.707h8.147l1.762 7.707h5.835L91.014 1.43zm-6.936 18.72c1.21-5.506 1.982-8.81 2.202-10.24s.55-2.863.66-4.074c.11.55.33 1.762.66 3.523.33 1.76.552 2.972.662 3.412l1.652 7.377h-5.837z"/><path d="M75.38 33.14c-1.212-.33-2.313-.55-3.634-.55-2.532 0-4.514.77-6.056 2.312-1.54 1.54-2.202 3.743-2.202 6.386 0 1.43.22 2.642.55 3.743s.882 1.983 1.653 2.864c.662.88 1.763 1.762 3.084 2.642 1.54 1.1 2.642 1.982 3.303 2.863.66.88.99 1.87.99 2.862 0 1.1-.33 1.872-.88 2.532-.55.66-1.54.88-2.642.88-1.982 0-4.404-.77-6.606-2.31v5.834c2.2 1.1 4.293 1.652 7.045 1.652s4.955-.77 6.496-2.312 2.203-3.854 2.203-6.716c0-1.872-.44-3.523-1.21-4.955-.882-1.43-2.313-2.863-4.295-4.294-1.54-.99-2.532-1.872-3.193-2.642-.66-.77-.88-1.76-.88-2.752 0-1.1.22-1.872.77-2.532s1.21-.88 2.202-.88c.88 0 1.652.11 2.422.44.77.33 1.43.66 2.2 1.1l1.983-4.734c-.88-.55-1.762-.88-2.642-1.21h-.77l.11-.22z"/><path d="M75.27 33.36h.77c-.22-.11-.44-.22-.77-.22v.22z"/></svg>